<svg id="visual" viewBox="0 0 900 600" width="900" height="600" xmlns="http://www.w3.org/2000/svg"
     version="1.1">
    <!-- <rect x="0" y="0" width="900" height="600" fill="#002233"></rect> -->
    <rect x="0" y="0" width="900" height="600" fill="rgba(225, 233, 242, 0.97)"></rect>
    <path
        d="M0 212L21.5 208C43 204 86 196 128.8 182.3C171.7 168.7 214.3 149.3 257.2 147.3C300 145.3 343 160.7 385.8 176.8C428.7 193 471.3 210 514.2 197.3C557 184.7 600 142.3 642.8 122.2C685.7 102 728.3 104 771.2 111.8C814 119.7 857 133.3 878.5 140.2L900 147L900 0L878.5 0C857 0 814 0 771.2 0C728.3 0 685.7 0 642.8 0C600 0 557 0 514.2 0C471.3 0 428.7 0 385.8 0C343 0 300 0 257.2 0C214.3 0 171.7 0 128.8 0C86 0 43 0 21.5 0L0 0Z"
        fill="#ffffff" stroke-linecap="round" stroke-linejoin="miter"></path>
</svg>