<svg id="visual" viewBox="0 0 900 600" width="900" height="600" xmlns="http://www.w3.org/2000/svg" version="1.1">
    <rect x="0" y="0" width="900" height="600" fill="#002233"></rect>
    <path
        d="M0 113L21.5 109.8C43 106.7 86 100.3 128.8 110.2C171.7 120 214.3 146 257.2 164.5C300 183 343 194 385.8 192C428.7 190 471.3 175 514.2 173.5C557 172 600 184 642.8 188.2C685.7 192.3 728.3 188.7 771.2 175.5C814 162.3 857 139.7 878.5 128.3L900 117L900 0L878.5 0C857 0 814 0 771.2 0C728.3 0 685.7 0 642.8 0C600 0 557 0 514.2 0C471.3 0 428.7 0 385.8 0C343 0 300 0 257.2 0C214.3 0 171.7 0 128.8 0C86 0 43 0 21.5 0L0 0Z"
        fill="#715DF2" stroke-linecap="round" stroke-linejoin="miter"></path>
</svg>