<svg id="visual" viewBox="0 0 960 540" width="960" height="540" xmlns="http://www.w3.org/2000/svg"
    version="1.1">
    <rect x="0" y="0" width="960" height="540" fill="#002233"></rect>
    <path
        d="M0 97L22.8 111.5C45.7 126 91.3 155 137 154.2C182.7 153.3 228.3 122.7 274 122C319.7 121.3 365.3 150.7 411.2 164.2C457 177.7 503 175.3 548.8 168.8C594.7 162.3 640.3 151.7 686 139.3C731.7 127 777.3 113 823 119C868.7 125 914.3 151 937.2 164L960 177L960 0L937.2 0C914.3 0 868.7 0 823 0C777.3 0 731.7 0 686 0C640.3 0 594.7 0 548.8 0C503 0 457 0 411.2 0C365.3 0 319.7 0 274 0C228.3 0 182.7 0 137 0C91.3 0 45.7 0 22.8 0L0 0Z"
        fill="#715DF2" stroke-linecap="round" stroke-linejoin="miter"></path>
</svg>