<svg id="visual" viewBox="0 0 900 600" width="900" height="600" xmlns="http://www.w3.org/2000/svg" xmlns:xlink="http://www.w3.org/1999/xlink" version="1.1"><rect x="0" y="0" width="900" height="600" fill="#715DF2"></rect><defs><linearGradient id="grad1_0" x1="33.3%" y1="0%" x2="100%" y2="100%"><stop offset="20%" stop-color="#715df2" stop-opacity="1"></stop><stop offset="80%" stop-color="#715df2" stop-opacity="1"></stop></linearGradient></defs><defs><linearGradient id="grad2_0" x1="0%" y1="0%" x2="66.7%" y2="100%"><stop offset="20%" stop-color="#715df2" stop-opacity="1"></stop><stop offset="80%" stop-color="#715df2" stop-opacity="1"></stop></linearGradient></defs><g transform="translate(900, 0)"><path d="M0 540.8C-87.7 515.7 -175.4 490.5 -259 448.6C-342.6 406.7 -422.1 348 -468.4 270.4C-514.7 192.9 -527.7 96.4 -540.8 0L0 0Z" fill="#002233"></path></g><g transform="translate(0, 600)"><path d="M0 -540.8C90.4 -520.3 180.7 -499.8 264 -457.3C347.3 -414.8 423.4 -350.3 468.4 -270.4C513.3 -190.5 527.1 -95.3 540.8 0L0 0Z" fill="#002233"></path></g></svg>