<svg id="visual" viewBox="0 0 900 600" width="900" height="600" xmlns="http://www.w3.org/2000/svg"
    version="1.1">
    <rect x="0" y="0" width="900" height="600" fill="#002233"></rect>
    <path
        d="M0 126L30 135C60 144 120 162 180 156.8C240 151.7 300 123.3 360 129.5C420 135.7 480 176.3 540 194.7C600 213 660 209 720 195.2C780 181.3 840 157.7 870 145.8L900 134L900 0L870 0C840 0 780 0 720 0C660 0 600 0 540 0C480 0 420 0 360 0C300 0 240 0 180 0C120 0 60 0 30 0L0 0Z"
        fill="#715DF2" stroke-linecap="round" stroke-linejoin="miter"></path>
</svg>