<svg id="visual" viewBox="0 0 900 600" width="900" height="600" xmlns="http://www.w3.org/2000/svg" xmlns:xlink="http://www.w3.org/1999/xlink" version="1.1"><rect x="0" y="0" width="900" height="600" fill="#002233"></rect><path d="M0 25L39 25L39 540L78 540L78 110L117 110L117 68L157 68L157 140L196 140L196 179L235 179L235 254L274 254L274 198L313 198L313 164L352 164L352 256L391 256L391 372L430 372L430 177L470 177L470 187L509 187L509 397L548 397L548 203L587 203L587 102L626 102L626 592L665 592L665 433L704 433L704 578L743 578L743 365L783 365L783 44L822 44L822 221L861 221L861 359L900 359L900 503L900 601L900 601L861 601L861 601L822 601L822 601L783 601L783 601L743 601L743 601L704 601L704 601L665 601L665 601L626 601L626 601L587 601L587 601L548 601L548 601L509 601L509 601L470 601L470 601L430 601L430 601L391 601L391 601L352 601L352 601L313 601L313 601L274 601L274 601L235 601L235 601L196 601L196 601L157 601L157 601L117 601L117 601L78 601L78 601L39 601L39 601L0 601Z" fill="#715df2"></path><path d="M0 318L39 318L39 123L78 123L78 561L117 561L117 88L157 88L157 446L196 446L196 150L235 150L235 108L274 108L274 77L313 77L313 478L352 478L352 457L391 457L391 201L430 201L430 316L470 316L470 229L509 229L509 172L548 172L548 65L587 65L587 257L626 257L626 497L665 497L665 545L704 545L704 386L743 386L743 319L783 319L783 142L822 142L822 439L861 439L861 524L900 524L900 291L900 601L900 601L861 601L861 601L822 601L822 601L783 601L783 601L743 601L743 601L704 601L704 601L665 601L665 601L626 601L626 601L587 601L587 601L548 601L548 601L509 601L509 601L470 601L470 601L430 601L430 601L391 601L391 601L352 601L352 601L313 601L313 601L274 601L274 601L235 601L235 601L196 601L196 601L157 601L157 601L117 601L117 601L78 601L78 601L39 601L39 601L0 601Z" fill="#5a5ce3"></path><path d="M0 560L39 560L39 258L78 258L78 471L117 471L117 146L157 146L157 303L196 303L196 543L235 543L235 597L274 597L274 353L313 353L313 590L352 590L352 191L391 191L391 324L430 324L430 412L470 412L470 387L509 387L509 292L548 292L548 215L587 215L587 197L626 197L626 598L665 598L665 287L704 287L704 187L743 187L743 245L783 245L783 519L822 519L822 129L861 129L861 457L900 457L900 588L900 601L900 601L861 601L861 601L822 601L822 601L783 601L783 601L743 601L743 601L704 601L704 601L665 601L665 601L626 601L626 601L587 601L587 601L548 601L548 601L509 601L509 601L470 601L470 601L430 601L430 601L391 601L391 601L352 601L352 601L313 601L313 601L274 601L274 601L235 601L235 601L196 601L196 601L157 601L157 601L117 601L117 601L78 601L78 601L39 601L39 601L0 601Z" fill="#4559d3"></path><path d="M0 471L39 471L39 201L78 201L78 499L117 499L117 286L157 286L157 183L196 183L196 468L235 468L235 272L274 272L274 191L313 191L313 282L352 282L352 262L391 262L391 295L430 295L430 278L470 278L470 283L509 283L509 430L548 430L548 254L587 254L587 245L626 245L626 290L665 290L665 273L704 273L704 251L743 251L743 281L783 281L783 152L822 152L822 279L861 279L861 350L900 350L900 253L900 601L900 601L861 601L861 601L822 601L822 601L783 601L783 601L743 601L743 601L704 601L704 601L665 601L665 601L626 601L626 601L587 601L587 601L548 601L548 601L509 601L509 601L470 601L470 601L430 601L430 601L391 601L391 601L352 601L352 601L313 601L313 601L274 601L274 601L235 601L235 601L196 601L196 601L157 601L157 601L117 601L117 601L78 601L78 601L39 601L39 601L0 601Z" fill="#3056c3"></path><path d="M0 240L39 240L39 399L78 399L78 236L117 236L117 248L157 248L157 578L196 578L196 295L235 295L235 450L274 450L274 538L313 538L313 512L352 512L352 311L391 311L391 565L430 565L430 323L470 323L470 236L509 236L509 380L548 380L548 244L587 244L587 542L626 542L626 412L665 412L665 429L704 429L704 467L743 467L743 416L783 416L783 377L822 377L822 545L861 545L861 197L900 197L900 392L900 601L900 601L861 601L861 601L822 601L822 601L783 601L783 601L743 601L743 601L704 601L704 601L665 601L665 601L626 601L626 601L587 601L587 601L548 601L548 601L509 601L509 601L470 601L470 601L430 601L430 601L391 601L391 601L352 601L352 601L313 601L313 601L274 601L274 601L235 601L235 601L196 601L196 601L157 601L157 601L117 601L117 601L78 601L78 601L39 601L39 601L0 601Z" fill="#1c52b2"></path><path d="M0 571L39 571L39 404L78 404L78 295L117 295L117 345L157 345L157 465L196 465L196 274L235 274L235 279L274 279L274 234L313 234L313 295L352 295L352 342L391 342L391 445L430 445L430 436L470 436L470 323L509 323L509 344L548 344L548 590L587 590L587 430L626 430L626 550L665 550L665 506L704 506L704 405L743 405L743 404L783 404L783 534L822 534L822 539L861 539L861 598L900 598L900 539L900 601L900 601L861 601L861 601L822 601L822 601L783 601L783 601L743 601L743 601L704 601L704 601L665 601L665 601L626 601L626 601L587 601L587 601L548 601L548 601L509 601L509 601L470 601L470 601L430 601L430 601L391 601L391 601L352 601L352 601L313 601L313 601L274 601L274 601L235 601L235 601L196 601L196 601L157 601L157 601L117 601L117 601L78 601L78 601L39 601L39 601L0 601Z" fill="#084da0"></path><path d="M0 443L39 443L39 475L78 475L78 519L117 519L117 282L157 282L157 355L196 355L196 467L235 467L235 287L274 287L274 571L313 571L313 473L352 473L352 571L391 571L391 438L430 438L430 541L470 541L470 492L509 492L509 521L548 521L548 320L587 320L587 452L626 452L626 527L665 527L665 312L704 312L704 318L743 318L743 483L783 483L783 532L822 532L822 391L861 391L861 347L900 347L900 497L900 601L900 601L861 601L861 601L822 601L822 601L783 601L783 601L743 601L743 601L704 601L704 601L665 601L665 601L626 601L626 601L587 601L587 601L548 601L548 601L509 601L509 601L470 601L470 601L430 601L430 601L391 601L391 601L352 601L352 601L313 601L313 601L274 601L274 601L235 601L235 601L196 601L196 601L157 601L157 601L117 601L117 601L78 601L78 601L39 601L39 601L0 601Z" fill="#00478e"></path><path d="M0 535L39 535L39 437L78 437L78 466L117 466L117 422L157 422L157 445L196 445L196 495L235 495L235 511L274 511L274 365L313 365L313 422L352 422L352 584L391 584L391 577L430 577L430 405L470 405L470 428L509 428L509 434L548 434L548 516L587 516L587 332L626 332L626 333L665 333L665 550L704 550L704 388L743 388L743 496L783 496L783 513L822 513L822 482L861 482L861 430L900 430L900 584L900 601L900 601L861 601L861 601L822 601L822 601L783 601L783 601L743 601L743 601L704 601L704 601L665 601L665 601L626 601L626 601L587 601L587 601L548 601L548 601L509 601L509 601L470 601L470 601L430 601L430 601L391 601L391 601L352 601L352 601L313 601L313 601L274 601L274 601L235 601L235 601L196 601L196 601L157 601L157 601L117 601L117 601L78 601L78 601L39 601L39 601L0 601Z" fill="#00417c"></path><path d="M0 412L39 412L39 483L78 483L78 541L117 541L117 499L157 499L157 492L196 492L196 371L235 371L235 448L274 448L274 538L313 538L313 457L352 457L352 597L391 597L391 531L430 531L430 440L470 440L470 476L509 476L509 552L548 552L548 597L587 597L587 514L626 514L626 493L665 493L665 501L704 501L704 493L743 493L743 556L783 556L783 539L822 539L822 449L861 449L861 486L900 486L900 453L900 601L900 601L861 601L861 601L822 601L822 601L783 601L783 601L743 601L743 601L704 601L704 601L665 601L665 601L626 601L626 601L587 601L587 601L548 601L548 601L509 601L509 601L470 601L470 601L430 601L430 601L391 601L391 601L352 601L352 601L313 601L313 601L274 601L274 601L235 601L235 601L196 601L196 601L157 601L157 601L117 601L117 601L78 601L78 601L39 601L39 601L0 601Z" fill="#003a69"></path><path d="M0 438L39 438L39 426L78 426L78 536L117 536L117 444L157 444L157 465L196 465L196 598L235 598L235 516L274 516L274 506L313 506L313 567L352 567L352 574L391 574L391 527L430 527L430 589L470 589L470 521L509 521L509 544L548 544L548 502L587 502L587 443L626 443L626 509L665 509L665 526L704 526L704 485L743 485L743 547L783 547L783 443L822 443L822 524L861 524L861 542L900 542L900 511L900 601L900 601L861 601L861 601L822 601L822 601L783 601L783 601L743 601L743 601L704 601L704 601L665 601L665 601L626 601L626 601L587 601L587 601L548 601L548 601L509 601L509 601L470 601L470 601L430 601L430 601L391 601L391 601L352 601L352 601L313 601L313 601L274 601L274 601L235 601L235 601L196 601L196 601L157 601L157 601L117 601L117 601L78 601L78 601L39 601L39 601L0 601Z" fill="#003256"></path><path d="M0 546L39 546L39 547L78 547L78 532L117 532L117 466L157 466L157 464L196 464L196 466L235 466L235 550L274 550L274 547L313 547L313 574L352 574L352 491L391 491L391 505L430 505L430 587L470 587L470 493L509 493L509 511L548 511L548 516L587 516L587 586L626 586L626 565L665 565L665 538L704 538L704 541L743 541L743 532L783 532L783 508L822 508L822 498L861 498L861 477L900 477L900 492L900 601L900 601L861 601L861 601L822 601L822 601L783 601L783 601L743 601L743 601L704 601L704 601L665 601L665 601L626 601L626 601L587 601L587 601L548 601L548 601L509 601L509 601L470 601L470 601L430 601L430 601L391 601L391 601L352 601L352 601L313 601L313 601L274 601L274 601L235 601L235 601L196 601L196 601L157 601L157 601L117 601L117 601L78 601L78 601L39 601L39 601L0 601Z" fill="#002a44"></path><path d="M0 507L39 507L39 522L78 522L78 512L117 512L117 560L157 560L157 529L196 529L196 581L235 581L235 598L274 598L274 554L313 554L313 535L352 535L352 573L391 573L391 576L430 576L430 516L470 516L470 525L509 525L509 539L548 539L548 528L587 528L587 519L626 519L626 586L665 586L665 552L704 552L704 512L743 512L743 538L783 538L783 521L822 521L822 580L861 580L861 578L900 578L900 552L900 601L900 601L861 601L861 601L822 601L822 601L783 601L783 601L743 601L743 601L704 601L704 601L665 601L665 601L626 601L626 601L587 601L587 601L548 601L548 601L509 601L509 601L470 601L470 601L430 601L430 601L391 601L391 601L352 601L352 601L313 601L313 601L274 601L274 601L235 601L235 601L196 601L196 601L157 601L157 601L117 601L117 601L78 601L78 601L39 601L39 601L0 601Z" fill="#002233"></path></svg>