<svg id="visual" viewBox="0 0 900 600" width="900" height="600" xmlns="http://www.w3.org/2000/svg" xmlns:xlink="http://www.w3.org/1999/xlink" version="1.1"><rect x="0" y="0" width="900" height="600" fill="#002233"></rect><path d="M0 376L21.5 359.5C43 343 86 310 128.8 307C171.7 304 214.3 331 257.2 334.8C300 338.7 343 319.3 385.8 318.7C428.7 318 471.3 336 514.2 336.5C557 337 600 320 642.8 322.2C685.7 324.3 728.3 345.7 771.2 339.2C814 332.7 857 298.3 878.5 281.2L900 264L900 601L878.5 601C857 601 814 601 771.2 601C728.3 601 685.7 601 642.8 601C600 601 557 601 514.2 601C471.3 601 428.7 601 385.8 601C343 601 300 601 257.2 601C214.3 601 171.7 601 128.8 601C86 601 43 601 21.5 601L0 601Z" fill="#002233"></path><path d="M0 449L21.5 442.7C43 436.3 86 423.7 128.8 410.3C171.7 397 214.3 383 257.2 381.2C300 379.3 343 389.7 385.8 401.7C428.7 413.7 471.3 427.3 514.2 428.3C557 429.3 600 417.7 642.8 408C685.7 398.3 728.3 390.7 771.2 393.7C814 396.7 857 410.3 878.5 417.2L900 424L900 601L878.5 601C857 601 814 601 771.2 601C728.3 601 685.7 601 642.8 601C600 601 557 601 514.2 601C471.3 601 428.7 601 385.8 601C343 601 300 601 257.2 601C214.3 601 171.7 601 128.8 601C86 601 43 601 21.5 601L0 601Z" fill="#4d3774"></path><path d="M0 496L21.5 495.2C43 494.3 86 492.7 128.8 500.8C171.7 509 214.3 527 257.2 529.7C300 532.3 343 519.7 385.8 506.5C428.7 493.3 471.3 479.7 514.2 479C557 478.3 600 490.7 642.8 496.3C685.7 502 728.3 501 771.2 496.2C814 491.3 857 482.7 878.5 478.3L900 474L900 601L878.5 601C857 601 814 601 771.2 601C728.3 601 685.7 601 642.8 601C600 601 557 601 514.2 601C471.3 601 428.7 601 385.8 601C343 601 300 601 257.2 601C214.3 601 171.7 601 128.8 601C86 601 43 601 21.5 601L0 601Z" fill="#c62368"></path></svg>