<svg id="visual" viewBox="0 0 960 540" width="960" height="540" xmlns="http://www.w3.org/2000/svg" xmlns:xlink="http://www.w3.org/1999/xlink" version="1.1"><rect x="0" y="0" width="960" height="540" fill="#002233"></rect><path d="M0 191L22.8 187.3C45.7 183.7 91.3 176.3 137 164C182.7 151.7 228.3 134.3 274 132.5C319.7 130.7 365.3 144.3 411.2 158.8C457 173.3 503 188.7 548.8 177.3C594.7 166 640.3 128 686 109.8C731.7 91.7 777.3 93.3 823 100.3C868.7 107.3 914.3 119.7 937.2 125.8L960 132L960 0L937.2 0C914.3 0 868.7 0 823 0C777.3 0 731.7 0 686 0C640.3 0 594.7 0 548.8 0C503 0 457 0 411.2 0C365.3 0 319.7 0 274 0C228.3 0 182.7 0 137 0C91.3 0 45.7 0 22.8 0L0 0Z" fill="#715DF2" stroke-linecap="round" stroke-linejoin="miter"></path></svg>