<svg id="visual" viewBox="0 0 900 600" width="900" height="600" xmlns="http://www.w3.org/2000/svg" xmlns:xlink="http://www.w3.org/1999/xlink" version="1.1"><rect x="0" y="0" width="900" height="600" fill="#002233"></rect><path d="M0 325L10.7 321.7C21.3 318.3 42.7 311.7 64.2 326.2C85.7 340.7 107.3 376.3 128.8 383.7C150.3 391 171.7 370 193 354.7C214.3 339.3 235.7 329.7 257 333.8C278.3 338 299.7 356 321.2 381.3C342.7 406.7 364.3 439.3 385.8 439.8C407.3 440.3 428.7 408.7 450 394.2C471.3 379.7 492.7 382.3 514.2 397.3C535.7 412.3 557.3 439.7 578.8 423.3C600.3 407 621.7 347 643 350.7C664.3 354.3 685.7 421.7 707 421.7C728.3 421.7 749.7 354.3 771.2 335.8C792.7 317.3 814.3 347.7 835.8 360.8C857.3 374 878.7 370 889.3 368L900 366L900 601L889.3 601C878.7 601 857.3 601 835.8 601C814.3 601 792.7 601 771.2 601C749.7 601 728.3 601 707 601C685.7 601 664.3 601 643 601C621.7 601 600.3 601 578.8 601C557.3 601 535.7 601 514.2 601C492.7 601 471.3 601 450 601C428.7 601 407.3 601 385.8 601C364.3 601 342.7 601 321.2 601C299.7 601 278.3 601 257 601C235.7 601 214.3 601 193 601C171.7 601 150.3 601 128.8 601C107.3 601 85.7 601 64.2 601C42.7 601 21.3 601 10.7 601L0 601Z" fill="#715DF2" stroke-linecap="round" stroke-linejoin="miter"></path></svg>