<svg id="visual" viewBox="0 0 960 540" width="960" height="540" xmlns="http://www.w3.org/2000/svg" xmlns:xlink="http://www.w3.org/1999/xlink" version="1.1"><rect x="0" y="0" width="960" height="540" fill="#002233"></rect><path d="M0 347L22.8 350.7C45.7 354.3 91.3 361.7 137 374C182.7 386.3 228.3 403.7 274 405.5C319.7 407.3 365.3 393.7 411.2 379.2C457 364.7 503 349.3 548.8 360.7C594.7 372 640.3 410 686 428.2C731.7 446.3 777.3 444.7 823 437.7C868.7 430.7 914.3 418.3 937.2 412.2L960 406L960 541L937.2 541C914.3 541 868.7 541 823 541C777.3 541 731.7 541 686 541C640.3 541 594.7 541 548.8 541C503 541 457 541 411.2 541C365.3 541 319.7 541 274 541C228.3 541 182.7 541 137 541C91.3 541 45.7 541 22.8 541L0 541Z" fill="#715DF2" stroke-linecap="round" stroke-linejoin="miter"></path></svg>